<svg xmlns="http://www.w3.org/2000/svg" width="75.501" height="87.07" viewBox="0 0 75.501 87.07">
  <g id="Grupo_1165" data-name="Grupo 1165" transform="translate(-375.979 -108)">
    <path id="Retângulo_301" data-name="Retângulo 301" d="M5,0H68.48a0,0,0,0,1,0,0V85a0,0,0,0,1,0,0H0a0,0,0,0,1,0,0V5A5,5,0,0,1,5,0Z" transform="translate(383 108.004)" fill="#fff"/>
    <path id="Caminho_1243" data-name="Caminho 1243" d="M406.168,198.425H340.892a4.4,4.4,0,0,0-4.381,4.235c.007,8.568.022,14.207.022,22.774,0,3.833-2.279,6.25-5.867,6.6,18.867.134,35.507-8.839,40.91-26.3,3.731,5.667,10.665,8.766,17.533,8.766C398.312,214.5,406.168,207.816,406.168,198.425Z" transform="translate(45.313 -90.425)" fill="#e4003f" fill-rule="evenodd"/>
    <path id="Caminho_1244" data-name="Caminho 1244" d="M407.209,311.921H341.943a4.4,4.4,0,0,1-4.383-4.383V270.685A9.613,9.613,0,0,0,334.1,273.7c-.575.761-.85.44-.68-.306a8.909,8.909,0,0,1,7.729-6.449,5.635,5.635,0,0,1,3.044,2.611,17.629,17.629,0,0,0-5.162.561c1.935,41.366,44.23,43.947,68.181,30.707Z" transform="translate(44.271 -116.852)" fill="#0072c0" fill-rule="evenodd"/>
    <path id="Caminho_1245" data-name="Caminho 1245" d="M408.8,272.316a5.673,5.673,0,0,1-.121,1.418,2.025,2.025,0,0,1-2.133,1.419,3.873,3.873,0,0,1-2.109-.63l-1.382,2.048a9.552,9.552,0,0,0,1.915.768,6.929,6.929,0,0,0,3.758-.041,4.1,4.1,0,0,0,3.055-4.327l-.074-4.7a58.846,58.846,0,0,1,.316-7.306l-3.733.7a34.187,34.187,0,0,1,.364,5.067q0,4.51-2.3,4.509c-1.779,0-1.818-2.6-1.818-3.855a62.168,62.168,0,0,1,.364-6.425l-3.612.7a17.5,17.5,0,0,1,.364,4.121l-.025,3.588a5.914,5.914,0,0,0,.255,1.928,3.145,3.145,0,0,0,.885,1.321,4.107,4.107,0,0,0,2.861,1.043,4.6,4.6,0,0,0,1.855-.364,3.263,3.263,0,0,0,1.321-.993Zm-14.777-7.734a1.685,1.685,0,0,1,1.515-.921,1.8,1.8,0,0,1,1.576,1.03,5.128,5.128,0,0,1,.606,2.631c0,1.371-.418,3.775-2.223,3.746a1.7,1.7,0,0,1-1.52-1.076,7.141,7.141,0,0,1,.045-5.409Zm-3.964,13.068,3.758-.824a22.734,22.734,0,0,1-.364-4.243,3.815,3.815,0,0,0,2.068,1.074,4.106,4.106,0,0,0,4.017-1.838,7.126,7.126,0,0,0,.994-2.085,9.056,9.056,0,0,0,.012-5.055,6.244,6.244,0,0,0-.969-1.927,4.584,4.584,0,0,0-1.467-1.273,3.95,3.95,0,0,0-1.861-.478,3.775,3.775,0,0,0-2.866,1.351l-.412-1.164-3.006.824a46.666,46.666,0,0,1,.509,8.389,50.181,50.181,0,0,1-.412,7.249Zm-7.375-13.068a1.685,1.685,0,0,1,1.515-.921,1.8,1.8,0,0,1,1.576,1.03,5.135,5.135,0,0,1,.606,2.631c0,1.371-.418,3.775-2.223,3.746a1.7,1.7,0,0,1-1.52-1.076,7.138,7.138,0,0,1,.045-5.409Zm-3.964,13.068,3.758-.824a22.734,22.734,0,0,1-.364-4.243,3.816,3.816,0,0,0,2.068,1.074,4.106,4.106,0,0,0,4.017-1.838,7.143,7.143,0,0,0,.994-2.085,9.062,9.062,0,0,0,.012-5.055,6.256,6.256,0,0,0-.97-1.927,4.584,4.584,0,0,0-1.467-1.273,3.948,3.948,0,0,0-1.861-.478,3.775,3.775,0,0,0-2.866,1.351l-.412-1.164-3.006.824a46.666,46.666,0,0,1,.509,8.389,50.1,50.1,0,0,1-.412,7.249Zm-24.27-4.292h3.758a39.3,39.3,0,0,1-.364-5.745,12.609,12.609,0,0,1,5.236-1.431v7.176h3.588a81.357,81.357,0,0,1,.014-16.178h-3.6v6.044a18.087,18.087,0,0,0-5.213,1.26c-.026-2.478.022-5.251.153-7.3h-3.945c1.425,5.06.894,11.67.374,16.178Zm15.866-6.061a5.182,5.182,0,0,1,.606-2.655,1.8,1.8,0,0,1,1.576-1.03,1.658,1.658,0,0,1,1.491.994,5.674,5.674,0,0,1,.546,2.715,6.079,6.079,0,0,1-.522,2.8,1.625,1.625,0,0,1-1.491.982,1.807,1.807,0,0,1-1.6-1.066,5.5,5.5,0,0,1-.606-2.74Zm4.267,6.061h3.273a41.738,41.738,0,0,1-.383-6.063c0-2.063.111-4.128.287-5.889h-3.176c.025.267.024.558.024.824a4.068,4.068,0,0,0-4.752-.764,4.22,4.22,0,0,0-1.442,1.261,6.346,6.346,0,0,0-.933,1.951,8.8,8.8,0,0,0-.34,2.522,8.93,8.93,0,0,0,.364,2.618,6.492,6.492,0,0,0,1.006,2.036,4.791,4.791,0,0,0,1.527,1.333,4,4,0,0,0,1.952.485,3.459,3.459,0,0,0,1.406-.267,3.345,3.345,0,0,0,1.14-.872A5.766,5.766,0,0,0,374.582,273.358Z" transform="translate(36.285 -113.085)" fill="#003176" fill-rule="evenodd"/>
    <path id="Caminho_1246" data-name="Caminho 1246" d="M367.883,301.819a16.369,16.369,0,0,0,5.034.944,8.555,8.555,0,0,0,2.336-.3,5.5,5.5,0,0,0,1.792-.852,3.748,3.748,0,0,0,1.551-3.1,3.741,3.741,0,0,0-.443-1.807,3.23,3.23,0,0,0-2.275-1.663,3.384,3.384,0,0,0-.1-5.98,6.986,6.986,0,0,0-3.219-.712,10.394,10.394,0,0,0-2.769.38,19.465,19.465,0,0,0-3.191,1.283l.725,2.341.564-.2v9.66Zm41.571-2.5-.444,2.283a8.738,8.738,0,0,0,1.987.782,6.673,6.673,0,0,0,3.625.042,3.123,3.123,0,0,0,1.955-1.7,3.256,3.256,0,0,0,.115-2.314,2.563,2.563,0,0,0-.517-.846,8.643,8.643,0,0,0-2.41-1.627,6.952,6.952,0,0,1-1.415-.856.936.936,0,0,1-.36-.687c0-.54.439-.782.93-.782a4.766,4.766,0,0,1,2.6,1.078l.888-1.966a10.563,10.563,0,0,0-1.934-.835,4.848,4.848,0,0,0-4.4.571,2.888,2.888,0,0,0-.967,1.809,2.686,2.686,0,0,0,1.058,2.552,10.41,10.41,0,0,0,1.843,1.188q.549.3.909.518c.446.275.93.616.93,1.194a.952.952,0,0,1-1.078.929,4.737,4.737,0,0,1-1.659-.4,7.177,7.177,0,0,1-1.659-.93Zm-10.421,3.073h3.121c-.134-1.374-.214-2.524-.287-3.88.243-.195.477-.415.719-.616a15.5,15.5,0,0,1,4.053,5.472l2.3-1.736a18.976,18.976,0,0,0-4.522-5.316,26.06,26.06,0,0,0,3.367-4.045h-3.244a12.471,12.471,0,0,1-2.675,3.558c.083-2.4.216-4.653.472-7.192l-3.3.723a47.426,47.426,0,0,1,.3,5.683c0,2.137-.059,5.082-.308,7.35Zm-9.96-5.249a7.094,7.094,0,0,0,.349,2.293,5.06,5.06,0,0,0,.983,1.744,4.176,4.176,0,0,0,1.543,1.1,5.271,5.271,0,0,0,2.05.38,5.079,5.079,0,0,0,2.029-.391,4.346,4.346,0,0,0,1.543-1.1,4.83,4.83,0,0,0,.972-1.734,7.308,7.308,0,0,0,.338-2.293,7.1,7.1,0,0,0-.348-2.293,4.961,4.961,0,0,0-.983-1.733,4.342,4.342,0,0,0-1.543-1.1,5.455,5.455,0,0,0-4.058,0,4.344,4.344,0,0,0-1.543,1.1,4.942,4.942,0,0,0-.983,1.733,7.1,7.1,0,0,0-.349,2.293Zm2.79,0a4.414,4.414,0,0,1,.56-2.409,1.844,1.844,0,0,1,3.128,0,4.418,4.418,0,0,1,.56,2.409,4.478,4.478,0,0,1-.549,2.42,1.754,1.754,0,0,1-1.564.856,1.773,1.773,0,0,1-1.575-.866,4.417,4.417,0,0,1-.56-2.409Zm-12.947,0a7.077,7.077,0,0,0,.349,2.293,5.06,5.06,0,0,0,.982,1.744,4.186,4.186,0,0,0,1.543,1.1,5.263,5.263,0,0,0,2.05.38,5.075,5.075,0,0,0,2.029-.391,4.353,4.353,0,0,0,1.543-1.1,4.828,4.828,0,0,0,.972-1.734,7.29,7.29,0,0,0,.338-2.293,7.1,7.1,0,0,0-.348-2.293,4.943,4.943,0,0,0-.983-1.733,4.341,4.341,0,0,0-1.543-1.1,5.456,5.456,0,0,0-4.058,0,4.348,4.348,0,0,0-1.543,1.1,4.941,4.941,0,0,0-.982,1.733,7.079,7.079,0,0,0-.349,2.293Zm2.79,0a4.415,4.415,0,0,1,.56-2.409,1.844,1.844,0,0,1,3.128,0,4.415,4.415,0,0,1,.56,2.409,4.477,4.477,0,0,1-.55,2.42,1.753,1.753,0,0,1-1.564.856,1.773,1.773,0,0,1-1.574-.866,4.418,4.418,0,0,1-.56-2.409Zm-11.186-.458a7.005,7.005,0,0,1,2.215-.39,3.224,3.224,0,0,1,1.963.544,1.7,1.7,0,0,1,.735,1.427,2.014,2.014,0,0,1-1.59,1.806,4.853,4.853,0,0,1-2.225.031,6.969,6.969,0,0,1-1.1-.3v-3.121Zm0-2.073v-3.367a7.453,7.453,0,0,1,1.037-.277,5.454,5.454,0,0,1,1.038-.113,2.579,2.579,0,0,1,1.59.442,1.4,1.4,0,0,1,.584,1.18,1.617,1.617,0,0,1-.493,1.17C373.4,294.545,371.6,294.621,370.52,294.613Z" transform="translate(31.456 -125.108)" fill="#003176" fill-rule="evenodd"/>
    <path id="Caminho_1247" data-name="Caminho 1247" d="M351.591,241.826a3.35,3.35,0,0,0,.941.052c17.275-.517,36.88-3.9,49.641-16.189a3.628,3.628,0,0,0,.883-1.1C389,235.936,369.683,240.611,351.591,241.826Z" transform="translate(37.242 -100.515)" fill="#e4003f" fill-rule="evenodd"/>
  </g>
</svg>
